<svg xmlns="http://www.w3.org/2000/svg" width="1600" height="900" viewBox="0 0 1600 900">
  <defs>
    <linearGradient id="g" x1="0" x2="1" y1="0" y2="1">
      <stop offset="0" stop-color="#EEF2FF"/>
      <stop offset="1" stop-color="#F8FAFC"/>
    </linearGradient>
  </defs>
  <rect width="1600" height="900" fill="url(#g)"/>
  <g opacity=".25" fill="none" stroke="#4F46E5" stroke-width="3">
    <path d="M1180 190c-60 0-110 50-110 110v190c0 35 28 63 63 63h210c35 0 63-28 63-63V300c0-60-50-110-110-110h-116z"/>
    <path d="M1080 310h380M1080 380h380M1080 450h380"/>
  </g>
  <g opacity=".18" fill="#4F46E5">
    <circle cx="260" cy="190" r="6"/>
    <circle cx="320" cy="220" r="5"/>
    <circle cx="410" cy="170" r="4"/>
    <circle cx="520" cy="260" r="6"/>
    <circle cx="620" cy="210" r="5"/>
  </g>
  <g opacity=".18" fill="none" stroke="#111827" stroke-width="2">
    <path d="M180 620c110-90 220-90 330 0s220 90 330 0 220-90 330 0" />
  </g>
  <g opacity=".18" fill="none" stroke="#16A34A" stroke-width="3">
    <path d="M250 720h230c20 0 35-16 35-35V520c0-19-15-35-35-35H250c-19 0-35 16-35 35v165c0 19 16 35 35 35z"/>
    <path d="M260 540h210M260 585h210M260 630h210"/>
  </g>
</svg>
